<svg xmlns="http://www.w3.org/2000/svg" width="1419" height="400" viewBox="-40.5 -273.3 1199.1 338.1"><defs><linearGradient id="tg" gradientUnits="userSpaceOnUse" x1="738.0" y1="0.0" x2="1098.6" y2="0.0"><stop offset="0.000" stop-color="#2f6fed"/><stop offset="0.200" stop-color="#16b1d8"/><stop offset="0.420" stop-color="#2ec06d"/><stop offset="0.600" stop-color="#9ecb3c"/><stop offset="0.760" stop-color="#f4c032"/><stop offset="0.890" stop-color="#f2843a"/><stop offset="1.000" stop-color="#e8434f"/></linearGradient></defs><path d="M71.7 -97.5H86.1Q98.39999999999999 -97.5 106.05 -103.65Q113.7 -109.8 113.7 -121.19999999999999Q113.7 -132.6 106.65 -138.75Q99.6 -144.9 86.1 -144.9Q81.3 -144.9 78.15 -144.75Q75.0 -144.6 71.7 -144.0ZM89.39999999999999 -56.4H19.5V-164.7Q19.5 -171.0 23.1 -174.45Q26.7 -177.9 32.4 -180.0Q42.6 -183.6 56.7 -185.25Q70.8 -186.9 81.89999999999999 -186.9Q123.0 -186.9 145.05 -169.2Q167.1 -151.5 167.1 -121.19999999999999Q167.1 -101.7 157.5 -87.15Q147.9 -72.6 130.5 -64.5Q113.1 -56.4 89.39999999999999 -56.4ZM19.5 -79.2H72.0V-0.3Q68.7 0.6 61.8 1.5Q54.9 2.4 47.699999999999996 2.4Q32.1 2.4 25.8 -3.1499999999999995Q19.5 -8.7 19.5 -22.5Z M364.49999999999994 -186.29999999999998Q364.49999999999994 -197.7 372.29999999999995 -205.5Q380.09999999999997 -213.29999999999998 392.4 -213.29999999999998Q404.7 -213.29999999999998 412.5 -205.5Q420.29999999999995 -197.7 420.29999999999995 -186.29999999999998Q420.29999999999995 -175.2 412.5 -167.25Q404.7 -159.29999999999998 392.4 -159.29999999999998Q380.09999999999997 -159.29999999999998 372.29999999999995 -167.25Q364.49999999999994 -175.2 364.49999999999994 -186.29999999999998ZM366.9 -79.2H417.9V-0.3Q414.59999999999997 0.6 408.44999999999993 1.5Q402.29999999999995 2.4 395.09999999999997 2.4Q380.4 2.4 373.65 -2.7Q366.9 -7.8 366.9 -21.599999999999998ZM417.9 -52.5H366.9V-143.7Q370.2 -144.6 376.34999999999997 -145.5Q382.49999999999994 -146.4 389.7 -146.4Q404.7 -146.4 411.29999999999995 -141.45Q417.9 -136.5 417.9 -122.39999999999999Z M593.6999999999999 -93.89999999999999V-66.3H542.6999999999999V-92.39999999999999Q542.6999999999999 -101.7 537.1499999999999 -106.05Q531.5999999999999 -110.39999999999999 522.5999999999999 -110.39999999999999Q516.5999999999999 -110.39999999999999 511.3499999999999 -108.89999999999999Q506.0999999999999 -107.39999999999999 501.29999999999995 -105.0V-66.3H450.29999999999995V-111.89999999999999Q450.29999999999995 -120.0 453.74999999999994 -125.1Q457.19999999999993 -130.2 463.19999999999993 -134.4Q473.3999999999999 -141.6 488.9999999999999 -145.95Q504.5999999999999 -150.29999999999998 523.1999999999999 -150.29999999999998Q557.0999999999999 -150.29999999999998 575.3999999999999 -135.45Q593.6999999999999 -120.6 593.6999999999999 -93.89999999999999ZM450.29999999999995 -79.2H501.29999999999995V-0.3Q497.99999999999994 0.6 491.8499999999999 1.5Q485.69999999999993 2.4 478.49999999999994 2.4Q463.79999999999995 2.4 457.04999999999995 -2.7Q450.29999999999995 -7.8 450.29999999999995 -21.599999999999998ZM542.6999999999999 -79.2H593.6999999999999V-0.3Q590.3999999999999 0.6 584.2499999999999 1.5Q578.0999999999999 2.4 570.8999999999999 2.4Q556.1999999999999 2.4 549.4499999999999 -2.7Q542.6999999999999 -7.8 542.6999999999999 -21.599999999999998Z M625.8 -79.2H676.1999999999999V-50.1Q676.1999999999999 -42.6 681.1499999999999 -39.15Q686.0999999999999 -35.699999999999996 695.0999999999999 -35.699999999999996Q699.5999999999999 -35.699999999999996 704.3999999999999 -36.449999999999996Q709.1999999999999 -37.199999999999996 712.8 -38.4Q715.4999999999999 -35.4 717.4499999999998 -31.2Q719.3999999999999 -27.0 719.3999999999999 -21.3Q719.3999999999999 -10.2 710.8499999999999 -2.8499999999999996Q702.3 4.5 680.6999999999999 4.5Q654.3 4.5 640.05 -7.5Q625.8 -19.5 625.8 -46.5ZM658.8 -103.5V-142.5H715.4999999999999Q717.3 -139.5 718.9499999999999 -134.39999999999998Q720.5999999999999 -129.29999999999998 720.5999999999999 -123.3Q720.5999999999999 -112.8 715.9499999999999 -108.15Q711.3 -103.5 703.4999999999999 -103.5ZM676.1999999999999 -72.0H625.8V-179.7Q629.0999999999999 -180.6 635.2499999999999 -181.64999999999998Q641.3999999999999 -182.7 648.3 -182.7Q662.9999999999999 -182.7 669.5999999999999 -177.6Q676.1999999999999 -172.5 676.1999999999999 -158.7Z" fill="#1d2733"/><path d="M744.5999999999999 -88.2 813.3 -180.29999999999998Q818.9999999999999 -182.1 826.4999999999999 -183.3Q833.9999999999999 -184.5 839.6999999999999 -184.5Q848.9999999999999 -184.5 857.0999999999999 -182.1Q865.1999999999999 -179.7 870.4499999999999 -173.7Q875.6999999999999 -167.7 875.6999999999999 -156.6V-76.8H899.3999999999999Q901.1999999999999 -73.8 903.0 -68.25Q904.8 -62.699999999999996 904.8 -56.699999999999996Q904.8 -45.6 899.6999999999999 -40.65Q894.5999999999999 -35.699999999999996 886.8 -35.699999999999996H875.6999999999999V-0.3Q872.6999999999999 0.3 865.9499999999999 1.3499999999999999Q859.1999999999999 2.4 853.1999999999999 2.4Q840.3 2.4 833.0999999999999 -1.05Q825.9 -4.5 825.9 -18.9V-35.699999999999996H754.8Q747.9 -39.3 742.9499999999999 -46.349999999999994Q737.9999999999999 -53.4 737.9999999999999 -63.599999999999994Q737.9999999999999 -69.3 739.3499999999999 -76.35Q740.6999999999999 -83.39999999999999 744.5999999999999 -88.2ZM828.5999999999999 -76.8V-133.2H827.6999999999999L790.4999999999999 -76.8Z M1044.6 -90.3Q1044.6 -63.9 1031.55 -50.7Q1018.5 -37.5 998.0999999999999 -37.5Q994.1999999999999 -37.5 989.25 -37.95Q984.3 -38.4 981.0 -39.0V-143.4Q985.5 -144.0 989.8499999999999 -144.3Q994.1999999999999 -144.6 998.4 -144.6Q1012.5 -144.6 1022.85 -138.45Q1033.2 -132.29999999999998 1038.9 -120.29999999999998Q1044.6 -108.3 1044.6 -90.3ZM1098.6 -91.2Q1098.6 -123.89999999999999 1085.55 -145.04999999999998Q1072.5 -166.2 1049.25 -176.55Q1026.0 -186.9 994.8 -186.9Q983.4 -186.9 969.0 -185.55Q954.5999999999999 -184.2 941.6999999999999 -180.0Q936.0 -177.9 932.4 -174.45Q928.8 -171.0 928.8 -164.7V-24.599999999999998Q928.8 -9.0 945.3 -2.6999999999999997Q957.3 1.7999999999999998 972.4499999999999 3.3Q987.5999999999999 4.8 997.8 4.8Q1028.1 4.8 1050.75 -5.85Q1073.3999999999999 -16.5 1086.0 -37.8Q1098.6 -59.099999999999994 1098.6 -91.2Z" fill="#2f6fed"/><ellipse cx="262.2" cy="-72.7" rx="66.0" ry="65.0" fill="none" stroke="#2f6fed" stroke-width="25.2"/><circle cx="262.2" cy="-72.7" r="18.9" fill="#2f6fed"/></svg>